<?xml version="1.0" standalone="no"?>
<!DOCTYPE svg PUBLIC "-//W3C//DTD SVG 20010904//EN"
 "http://www.w3.org/TR/2001/REC-SVG-20010904/DTD/svg10.dtd">
<svg version="1.0" xmlns="http://www.w3.org/2000/svg"
 width="24.000000pt" height="24.000000pt" viewBox="0 0 24.000000 24.000000"
 preserveAspectRatio="xMidYMid meet">

<g transform="translate(0.000000,24.000000) scale(0.100000,-0.100000)"
fill="#000000" stroke="none">
<path d="M70 200 c-11 -11 -20 -24 -20 -30 0 -13 37 -50 50 -50 13 0 50 37 50
50 0 13 -37 50 -50 50 -5 0 -19 -9 -30 -20z m55 -30 c0 -18 -6 -26 -23 -28
-24 -4 -38 18 -28 44 3 9 15 14 28 12 17 -2 23 -10 23 -28z"/>
<path d="M187 183 c-12 -12 -7 -22 8 -17 18 7 20 -7 3 -24 -8 -8 -8 -12 -1
-12 6 0 16 7 23 15 18 22 -13 58 -33 38z"/>
<path d="M48 99 c-30 -17 -40 -46 -22 -63 21 -22 127 -22 148 0 19 18 8 47
-24 64 -24 13 -80 12 -102 -1z m120 -36 c3 -22 0 -23 -67 -23 -62 0 -71 2 -71
18 0 29 10 33 75 30 54 -3 60 -5 63 -25z"/>
</g>
</svg>
